<svg xmlns="http://www.w3.org/2000/svg" viewBox="0 0 600 500" fill="none">
  <!-- Background Gradient Circle -->
  <circle cx="300" cy="250" r="220" fill="#D4F1F4" opacity="0.5"/>
  <circle cx="300" cy="250" r="180" fill="#D4F1F4" opacity="0.3"/>

  <!-- Central Building/ERP Icon -->
  <!-- Main Building -->
  <rect x="220" y="160" width="160" height="180" rx="8" fill="#05445E"/>

  <!-- Building Windows Grid -->
  <rect x="240" y="180" width="24" height="20" rx="3" fill="#75E6DA" opacity="0.8"/>
  <rect x="272" y="180" width="24" height="20" rx="3" fill="#189AB4" opacity="0.8"/>
  <rect x="304" y="180" width="24" height="20" rx="3" fill="#75E6DA" opacity="0.8"/>
  <rect x="336" y="180" width="24" height="20" rx="3" fill="#189AB4" opacity="0.8"/>

  <rect x="240" y="210" width="24" height="20" rx="3" fill="#189AB4" opacity="0.8"/>
  <rect x="272" y="210" width="24" height="20" rx="3" fill="#75E6DA" opacity="0.8"/>
  <rect x="304" y="210" width="24" height="20" rx="3" fill="#189AB4" opacity="0.8"/>
  <rect x="336" y="210" width="24" height="20" rx="3" fill="#75E6DA" opacity="0.8"/>

  <rect x="240" y="240" width="24" height="20" rx="3" fill="#75E6DA" opacity="0.8"/>
  <rect x="272" y="240" width="24" height="20" rx="3" fill="#189AB4" opacity="0.8"/>
  <rect x="304" y="240" width="24" height="20" rx="3" fill="#75E6DA" opacity="0.8"/>
  <rect x="336" y="240" width="24" height="20" rx="3" fill="#189AB4" opacity="0.8"/>

  <!-- Building Door -->
  <rect x="275" y="290" width="50" height="50" rx="4" fill="#189AB4"/>
  <rect x="280" y="295" width="18" height="45" rx="2" fill="#D4F1F4" opacity="0.6"/>
  <rect x="302" y="295" width="18" height="45" rx="2" fill="#D4F1F4" opacity="0.6"/>

  <!-- Left Wing -->
  <rect x="140" y="210" width="80" height="130" rx="6" fill="#189AB4"/>
  <rect x="155" y="225" width="20" height="16" rx="2" fill="#D4F1F4" opacity="0.6"/>
  <rect x="183" y="225" width="20" height="16" rx="2" fill="#D4F1F4" opacity="0.6"/>
  <rect x="155" y="250" width="20" height="16" rx="2" fill="#D4F1F4" opacity="0.6"/>
  <rect x="183" y="250" width="20" height="16" rx="2" fill="#D4F1F4" opacity="0.6"/>
  <rect x="155" y="275" width="20" height="16" rx="2" fill="#D4F1F4" opacity="0.6"/>
  <rect x="183" y="275" width="20" height="16" rx="2" fill="#D4F1F4" opacity="0.6"/>

  <!-- Right Wing -->
  <rect x="380" y="210" width="80" height="130" rx="6" fill="#189AB4"/>
  <rect x="395" y="225" width="20" height="16" rx="2" fill="#D4F1F4" opacity="0.6"/>
  <rect x="423" y="225" width="20" height="16" rx="2" fill="#D4F1F4" opacity="0.6"/>
  <rect x="395" y="250" width="20" height="16" rx="2" fill="#D4F1F4" opacity="0.6"/>
  <rect x="423" y="250" width="20" height="16" rx="2" fill="#D4F1F4" opacity="0.6"/>
  <rect x="395" y="275" width="20" height="16" rx="2" fill="#D4F1F4" opacity="0.6"/>
  <rect x="423" y="275" width="20" height="16" rx="2" fill="#D4F1F4" opacity="0.6"/>

  <!-- Ground -->
  <rect x="100" y="340" width="400" height="8" rx="4" fill="#05445E" opacity="0.3"/>

  <!-- Floating Module Icons -->
  <!-- Inventory -->
  <circle cx="130" cy="140" r="28" fill="#FFFFFF" stroke="#75E6DA" stroke-width="2"/>
  <rect x="118" y="128" width="24" height="18" rx="3" fill="#05445E"/>
  <rect x="121" y="131" width="8" height="6" rx="1" fill="#75E6DA"/>
  <rect x="131" y="131" width="8" height="6" rx="1" fill="#75E6DA"/>
  <rect x="121" y="139" width="8" height="4" rx="1" fill="#189AB4"/>
  <rect x="131" y="139" width="8" height="4" rx="1" fill="#189AB4"/>
  <text x="130" y="160" text-anchor="middle" font-family="Arial, sans-serif" font-size="7" fill="#05445E">Inventory</text>

  <!-- Orders -->
  <circle cx="470" cy="140" r="28" fill="#FFFFFF" stroke="#189AB4" stroke-width="2"/>
  <rect x="458" y="126" width="24" height="28" rx="3" fill="#05445E"/>
  <line x1="463" y1="134" x2="477" y2="134" stroke="#75E6DA" stroke-width="2"/>
  <line x1="463" y1="140" x2="477" y2="140" stroke="#75E6DA" stroke-width="2"/>
  <line x1="463" y1="146" x2="473" y2="146" stroke="#75E6DA" stroke-width="2"/>
  <text x="470" y="160" text-anchor="middle" font-family="Arial, sans-serif" font-size="7" fill="#05445E">Orders</text>

  <!-- Analytics -->
  <circle cx="100" cy="300" r="28" fill="#FFFFFF" stroke="#75E6DA" stroke-width="2"/>
  <rect x="86" y="290" width="8" height="16" rx="2" fill="#189AB4"/>
  <rect x="96" y="284" width="8" height="22" rx="2" fill="#05445E"/>
  <rect x="106" y="288" width="8" height="18" rx="2" fill="#75E6DA"/>
  <text x="100" y="322" text-anchor="middle" font-family="Arial, sans-serif" font-size="7" fill="#05445E">Analytics</text>

  <!-- Delivery -->
  <circle cx="500" cy="300" r="28" fill="#FFFFFF" stroke="#189AB4" stroke-width="2"/>
  <rect x="487" y="292" width="22" height="14" rx="3" fill="#05445E"/>
  <rect x="483" y="296" width="8" height="8" rx="1" fill="#189AB4"/>
  <circle cx="492" cy="308" r="3" fill="#666"/>
  <circle cx="504" cy="308" r="3" fill="#666"/>
  <text x="500" y="322" text-anchor="middle" font-family="Arial, sans-serif" font-size="7" fill="#05445E">Delivery</text>

  <!-- Connecting Lines -->
  <line x1="158" y1="140" x2="220" y2="180" stroke="#75E6DA" stroke-width="1.5" stroke-dasharray="4,3" opacity="0.6"/>
  <line x1="442" y1="140" x2="380" y2="180" stroke="#189AB4" stroke-width="1.5" stroke-dasharray="4,3" opacity="0.6"/>
  <line x1="128" y1="280" x2="180" y2="270" stroke="#75E6DA" stroke-width="1.5" stroke-dasharray="4,3" opacity="0.6"/>
  <line x1="472" y1="280" x2="420" y2="270" stroke="#189AB4" stroke-width="1.5" stroke-dasharray="4,3" opacity="0.6"/>

  <!-- Decorative Dots -->
  <circle cx="80" cy="180" r="4" fill="#75E6DA" opacity="0.5"/>
  <circle cx="520" cy="180" r="4" fill="#189AB4" opacity="0.5"/>
  <circle cx="60" cy="250" r="3" fill="#189AB4" opacity="0.4"/>
  <circle cx="540" cy="250" r="3" fill="#75E6DA" opacity="0.4"/>
  <circle cx="200" cy="100" r="3" fill="#05445E" opacity="0.3"/>
  <circle cx="400" cy="100" r="3" fill="#05445E" opacity="0.3"/>

  <!-- Title -->
  <text x="300" y="390" text-anchor="middle" font-family="Arial, sans-serif" font-size="28" font-weight="bold" fill="#05445E">ERP Solution</text>
  <text x="300" y="415" text-anchor="middle" font-family="Arial, sans-serif" font-size="14" fill="#189AB4">Complete Business Management Platform</text>

  <!-- Feature Tags -->
  <rect x="115" y="435" width="80" height="22" rx="11" fill="#05445E"/>
  <text x="155" y="450" text-anchor="middle" font-family="Arial, sans-serif" font-size="9" fill="#FFFFFF">Inventory</text>

  <rect x="205" y="435" width="65" height="22" rx="11" fill="#189AB4"/>
  <text x="237" y="450" text-anchor="middle" font-family="Arial, sans-serif" font-size="9" fill="#FFFFFF">Sales</text>

  <rect x="280" y="435" width="80" height="22" rx="11" fill="#05445E"/>
  <text x="320" y="450" text-anchor="middle" font-family="Arial, sans-serif" font-size="9" fill="#FFFFFF">Purchase</text>

  <rect x="370" y="435" width="75" height="22" rx="11" fill="#189AB4"/>
  <text x="407" y="450" text-anchor="middle" font-family="Arial, sans-serif" font-size="9" fill="#FFFFFF">Delivery</text>

  <rect x="455" y="435" width="80" height="22" rx="11" fill="#05445E"/>
  <text x="495" y="450" text-anchor="middle" font-family="Arial, sans-serif" font-size="9" fill="#FFFFFF">Analytics</text>
</svg>