<svg xmlns="http://www.w3.org/2000/svg" viewBox="0 0 800 600" fill="none">
  <!-- Background -->
  <rect width="800" height="600" rx="20" fill="#D4F1F4"/>

  <!-- Title Bar -->
  <rect x="40" y="30" width="720" height="60" rx="12" fill="#05445E"/>
  <text x="400" y="68" text-anchor="middle" font-family="Arial, sans-serif" font-size="24" font-weight="bold" fill="#FFFFFF">Sales Analytics</text>

  <!-- KPI Row -->
  <rect x="40" y="110" width="170" height="90" rx="12" fill="#FFFFFF" stroke="#75E6DA" stroke-width="2"/>
  <text x="125" y="140" text-anchor="middle" font-family="Arial, sans-serif" font-size="11" fill="#189AB4">Monthly Sales</text>
  <text x="125" y="168" text-anchor="middle" font-family="Arial, sans-serif" font-size="22" font-weight="bold" fill="#05445E">₹42.8L</text>
  <text x="125" y="188" text-anchor="middle" font-family="Arial, sans-serif" font-size="10" fill="#2ecc71">▲ 18.4%</text>

  <rect x="225" y="110" width="170" height="90" rx="12" fill="#FFFFFF" stroke="#189AB4" stroke-width="2"/>
  <text x="310" y="140" text-anchor="middle" font-family="Arial, sans-serif" font-size="11" fill="#189AB4">Avg Order Value</text>
  <text x="310" y="168" text-anchor="middle" font-family="Arial, sans-serif" font-size="22" font-weight="bold" fill="#05445E">₹1.85L</text>
  <text x="310" y="188" text-anchor="middle" font-family="Arial, sans-serif" font-size="10" fill="#2ecc71">▲ 5.2%</text>

  <rect x="410" y="110" width="170" height="90" rx="12" fill="#FFFFFF" stroke="#75E6DA" stroke-width="2"/>
  <text x="495" y="140" text-anchor="middle" font-family="Arial, sans-serif" font-size="11" fill="#189AB4">Conversion Rate</text>
  <text x="495" y="168" text-anchor="middle" font-family="Arial, sans-serif" font-size="22" font-weight="bold" fill="#05445E">68.5%</text>
  <text x="495" y="188" text-anchor="middle" font-family="Arial, sans-serif" font-size="10" fill="#2ecc71">▲ 3.1%</text>

  <rect x="595" y="110" width="165" height="90" rx="12" fill="#FFFFFF" stroke="#189AB4" stroke-width="2"/>
  <text x="677" y="140" text-anchor="middle" font-family="Arial, sans-serif" font-size="11" fill="#189AB4">Active Customers</text>
  <text x="677" y="168" text-anchor="middle" font-family="Arial, sans-serif" font-size="22" font-weight="bold" fill="#05445E">186</text>
  <text x="677" y="188" text-anchor="middle" font-family="Arial, sans-serif" font-size="10" fill="#e74c3c">▼ 2.3%</text>

  <!-- Bar Chart -->
  <rect x="40" y="220" width="440" height="250" rx="12" fill="#FFFFFF" stroke="#E0E0E0" stroke-width="1"/>
  <text x="60" y="250" font-family="Arial, sans-serif" font-size="14" font-weight="bold" fill="#05445E">Monthly Revenue (Lakhs)</text>

  <!-- Y-axis labels -->
  <text x="70" y="280" font-family="Arial, sans-serif" font-size="9" fill="#999">50</text>
  <text x="70" y="310" font-family="Arial, sans-serif" font-size="9" fill="#999">40</text>
  <text x="70" y="340" font-family="Arial, sans-serif" font-size="9" fill="#999">30</text>
  <text x="70" y="370" font-family="Arial, sans-serif" font-size="9" fill="#999">20</text>
  <text x="70" y="400" font-family="Arial, sans-serif" font-size="9" fill="#999">10</text>
  <text x="75" y="430" font-family="Arial, sans-serif" font-size="9" fill="#999">0</text>

  <!-- Grid -->
  <line x1="90" y1="275" x2="460" y2="275" stroke="#F5F5F5" stroke-width="1"/>
  <line x1="90" y1="305" x2="460" y2="305" stroke="#F5F5F5" stroke-width="1"/>
  <line x1="90" y1="335" x2="460" y2="335" stroke="#F5F5F5" stroke-width="1"/>
  <line x1="90" y1="365" x2="460" y2="365" stroke="#F5F5F5" stroke-width="1"/>
  <line x1="90" y1="395" x2="460" y2="395" stroke="#F5F5F5" stroke-width="1"/>
  <line x1="90" y1="425" x2="460" y2="425" stroke="#F5F5F5" stroke-width="1"/>

  <!-- Bars -->
  <rect x="100" y="350" width="28" height="75" rx="4" fill="#189AB4" opacity="0.7"/>
  <rect x="140" y="330" width="28" height="95" rx="4" fill="#189AB4" opacity="0.7"/>
  <rect x="180" y="310" width="28" height="115" rx="4" fill="#189AB4" opacity="0.7"/>
  <rect x="220" y="340" width="28" height="85" rx="4" fill="#189AB4" opacity="0.7"/>
  <rect x="260" y="300" width="28" height="125" rx="4" fill="#189AB4" opacity="0.7"/>
  <rect x="300" y="290" width="28" height="135" rx="4" fill="#189AB4" opacity="0.7"/>
  <rect x="340" y="315" width="28" height="110" rx="4" fill="#189AB4" opacity="0.7"/>
  <rect x="380" y="295" width="28" height="130" rx="4" fill="#75E6DA"/>
  <rect x="420" y="278" width="28" height="147" rx="4" fill="#05445E"/>

  <!-- Bar Labels -->
  <text x="114" y="442" text-anchor="middle" font-family="Arial, sans-serif" font-size="9" fill="#999">Jul</text>
  <text x="154" y="442" text-anchor="middle" font-family="Arial, sans-serif" font-size="9" fill="#999">Aug</text>
  <text x="194" y="442" text-anchor="middle" font-family="Arial, sans-serif" font-size="9" fill="#999">Sep</text>
  <text x="234" y="442" text-anchor="middle" font-family="Arial, sans-serif" font-size="9" fill="#999">Oct</text>
  <text x="274" y="442" text-anchor="middle" font-family="Arial, sans-serif" font-size="9" fill="#999">Nov</text>
  <text x="314" y="442" text-anchor="middle" font-family="Arial, sans-serif" font-size="9" fill="#999">Dec</text>
  <text x="354" y="442" text-anchor="middle" font-family="Arial, sans-serif" font-size="9" fill="#999">Jan</text>
  <text x="394" y="442" text-anchor="middle" font-family="Arial, sans-serif" font-size="9" fill="#999">Feb</text>
  <text x="434" y="442" text-anchor="middle" font-family="Arial, sans-serif" font-size="9" font-weight="bold" fill="#05445E">Mar</text>

  <!-- Value Labels on Bars -->
  <text x="434" y="270" text-anchor="middle" font-family="Arial, sans-serif" font-size="9" font-weight="bold" fill="#05445E">42.8</text>
  <text x="394" y="287" text-anchor="middle" font-family="Arial, sans-serif" font-size="9" fill="#666">38.2</text>

  <!-- Product Mix Pie -->
  <rect x="500" y="220" width="260" height="250" rx="12" fill="#FFFFFF" stroke="#E0E0E0" stroke-width="1"/>
  <text x="520" y="250" font-family="Arial, sans-serif" font-size="14" font-weight="bold" fill="#05445E">Product Mix</text>

  <!-- Pie Chart -->
  <circle cx="630" cy="340" r="65" fill="none" stroke="#E8E8E8" stroke-width="20"/>
  <circle cx="630" cy="340" r="65" fill="none" stroke="#05445E" stroke-width="20" stroke-dasharray="163 408" stroke-dashoffset="0" transform="rotate(-90 630 340)"/>
  <circle cx="630" cy="340" r="65" fill="none" stroke="#189AB4" stroke-width="20" stroke-dasharray="102 408" stroke-dashoffset="-163" transform="rotate(-90 630 340)"/>
  <circle cx="630" cy="340" r="65" fill="none" stroke="#75E6DA" stroke-width="20" stroke-dasharray="81 408" stroke-dashoffset="-265" transform="rotate(-90 630 340)"/>
  <circle cx="630" cy="340" r="65" fill="none" stroke="#D4F1F4" stroke-width="20" stroke-dasharray="62 408" stroke-dashoffset="-346" transform="rotate(-90 630 340)"/>
  <circle cx="630" cy="340" r="48" fill="#FFFFFF"/>

  <!-- Pie Legend - 2x2 grid with ample spacing -->
  <rect x="520" y="420" width="10" height="10" rx="2" fill="#05445E"/>
  <text x="535" y="430" font-family="Arial, sans-serif" font-size="10" fill="#666">TMT Bars 40%</text>

  <rect x="630" y="420" width="10" height="10" rx="2" fill="#189AB4"/>
  <text x="645" y="430" font-family="Arial, sans-serif" font-size="10" fill="#666">Steel 25%</text>

  <rect x="520" y="445" width="10" height="10" rx="2" fill="#75E6DA"/>
  <text x="535" y="455" font-family="Arial, sans-serif" font-size="10" fill="#666">Cement 20%</text>

  <rect x="630" y="445" width="10" height="10" rx="2" fill="#D4F1F4" stroke="#CCC" stroke-width="0.5"/>
  <text x="645" y="455" font-family="Arial, sans-serif" font-size="10" fill="#666">Others 15%</text>

  <!-- Top Customers Table -->
  <rect x="40" y="490" width="720" height="90" rx="12" fill="#FFFFFF" stroke="#E0E0E0" stroke-width="1"/>
  <text x="60" y="518" font-family="Arial, sans-serif" font-size="14" font-weight="bold" fill="#05445E">Top Customers by Revenue</text>

  <!-- Table Header -->
  <rect x="55" y="528" width="690" height="20" rx="4" fill="#D4F1F4"/>
  <text x="75" y="542" font-family="Arial, sans-serif" font-size="9" font-weight="bold" fill="#05445E">Rank</text>
  <text x="120" y="542" font-family="Arial, sans-serif" font-size="9" font-weight="bold" fill="#05445E">Customer Name</text>
  <text x="350" y="542" font-family="Arial, sans-serif" font-size="9" font-weight="bold" fill="#05445E">Orders</text>
  <text x="420" y="542" font-family="Arial, sans-serif" font-size="9" font-weight="bold" fill="#05445E">Revenue</text>
  <text x="540" y="542" font-family="Arial, sans-serif" font-size="9" font-weight="bold" fill="#05445E">Trend</text>
  <text x="620" y="542" font-family="Arial, sans-serif" font-size="9" font-weight="bold" fill="#05445E">Rank</text>
  <text x="650" y="542" font-family="Arial, sans-serif" font-size="9" font-weight="bold" fill="#05445E">Customer Name</text>

  <!-- Row 1 -->
  <text x="85" y="565" text-anchor="middle" font-family="Arial, sans-serif" font-size="10" fill="#05445E" font-weight="bold">#1</text>
  <text x="120" y="565" font-family="Arial, sans-serif" font-size="10" fill="#333">Sharma Construction</text>
  <text x="350" y="565" font-family="Arial, sans-serif" font-size="10" fill="#333">28</text>
  <text x="420" y="565" font-family="Arial, sans-serif" font-size="10" font-weight="bold" fill="#05445E">₹8.45L</text>
  <!-- Mini sparkline -->
  <polyline points="540,568 550,560 560,564 570,556 580,553 590,548" stroke="#2ecc71" stroke-width="2" fill="none"/>

  <!-- Row 2 -->
  <text x="630" y="565" text-anchor="middle" font-family="Arial, sans-serif" font-size="10" fill="#05445E" font-weight="bold">#2</text>
  <text x="650" y="565" font-family="Arial, sans-serif" font-size="10" fill="#333">Patel Infra</text>
  <text x="730" y="565" text-anchor="end" font-family="Arial, sans-serif" font-size="10" fill="#05445E" font-weight="bold">₹6.22L</text>
</svg>